<svg id="Lager_6" data-name="Lager 6" xmlns="http://www.w3.org/2000/svg" viewBox="0 0 415.63 352.9"><defs><style>.cls-1{fill:#fff;}.cls-2{fill:#a0c547;}.cls-3{fill:#454544;}.cls-4{fill:#6bad13;}.cls-5{fill:#539ede;}.cls-6{fill:#fcd925;}.cls-7{fill:#d8432d;}.cls-8{fill:#0076bc;}.cls-9{font-size:14px;}.cls-14,.cls-9{fill:#161615;font-family:Helvetica-Bold, Helvetica, Arial, sans-serif;font-weight:700;}.cls-10{fill:#2d9824;}.cls-11{fill:#006623;}.cls-12{fill:#b0812c;}.cls-13{fill:#ad1210;}.cls-14{font-size:18px;}</style></defs><g id="Layer_1" data-name="Layer 1"><rect class="cls-1" x="148.23" y="205.59" width="69.04" height="1.5"/><polygon class="cls-1" points="210.93 213.41 209.9 212.32 216.2 206.34 209.9 200.35 210.93 199.26 218.38 206.34 210.93 213.41"/><rect class="cls-2" x="-0.72" y="-0.2" width="417.35" height="354.01"/><path class="cls-3" d="M416.63,121H276.06a12.13,12.13,0,0,1-12.14-12.14V-.2H152V108.87A12.13,12.13,0,0,1,139.85,121H-.72V232.94H139.85A12.14,12.14,0,0,1,152,245.08l-.25,108.74H263.67l.25-108.74a12.14,12.14,0,0,1,12.14-12.14H416.63Z"/><polygon class="cls-1" points="210.93 199.26 209.9 200.35 215.41 205.59 147.46 205.59 147.46 207.09 215.41 207.09 209.9 212.32 210.93 213.41 218.38 206.34 210.93 199.26"/><path class="cls-4" d="M394.28,320.52a16.06,16.06,0,0,0-8.57-13,14.25,14.25,0,0,0,.55-5c-.37-7.08-7-12.52-14.08-12.52a12.84,12.84,0,0,0-12.34,9.32,18.6,18.6,0,0,0-2.36-.18,15.69,15.69,0,1,0,0,31.37,23.46,23.46,0,0,0,6.57-.89,15.67,15.67,0,0,0,13,6.94C385.73,336.6,394.91,332.37,394.28,320.52Z"/><path class="cls-4" d="M62.19,77.38c0,9.29-11.46,16.91-20.75,16.91s-16-6.71-16-16S36.08,60.55,45.37,60.55A16.83,16.83,0,0,1,62.19,77.38Z"/><path class="cls-4" d="M127.41,47.55a14.16,14.16,0,0,0-14.17-14.17,14,14,0,0,0-4.91.89,14.18,14.18,0,0,0-27.26,5.46,14.33,14.33,0,0,0,.46,3.55,14.17,14.17,0,0,0,5.89,27.06c.35,0,.68,0,1-.06a14.17,14.17,0,0,0,26.86-8.72A14.16,14.16,0,0,0,127.41,47.55Z"/><path class="cls-4" d="M343.36,271.16a13.4,13.4,0,0,0-23-9.35,11.74,11.74,0,0,0-19.07,13.3,14.74,14.74,0,1,0,18.57,20.45,11.74,11.74,0,1,0,18.73-14.15A13.4,13.4,0,0,0,343.36,271.16Z"/><polygon class="cls-1" points="184.59 173.77 179.35 179.28 179.35 119.61 177.85 119.61 177.85 179.28 172.62 173.77 171.53 174.8 178.6 182.25 185.68 174.8 184.59 173.77"/><path class="cls-5" d="M195.31,109.88a6,6,0,0,0,.15-1.28V48.7A5.74,5.74,0,0,0,189.71,43H167.5a5.74,5.74,0,0,0-5.75,5.75v59.9a6,6,0,0,0,.15,1.28l10.61,4.47H184.7Z"/><path class="cls-6" d="M161.9,109.88a5.75,5.75,0,0,0,5.6,4.47h5v-2.58a1.89,1.89,0,0,0-1.88-1.89Z"/><path class="cls-6" d="M195.31,109.88h-8.73a1.89,1.89,0,0,0-1.88,1.89v2.58h5A5.76,5.76,0,0,0,195.31,109.88Z"/><rect class="cls-7" x="167.16" y="41.14" width="8.8" height="1.83"/><rect class="cls-7" x="181.2" y="41.14" width="8.8" height="1.83"/><rect class="cls-8" x="166.12" y="62.44" width="1.39" height="24.71"/><path class="cls-1" d="M191.09,62.43h-25V57.84a2.67,2.67,0,0,1,2.66-2.67h19.65a2.67,2.67,0,0,1,2.66,2.67Z"/><rect class="cls-8" x="189.7" y="62.44" width="1.39" height="24.69"/><path class="cls-1" d="M186.59,97.67h-16a4.49,4.49,0,0,1-4.5-4.5v-6h25v6A4.49,4.49,0,0,1,186.59,97.67Z"/><text class="cls-9" transform="translate(172.94 79.45)">A</text><polygon class="cls-1" points="267.77 147 209.81 147 215.32 141.76 214.29 140.68 206.84 147.75 214.29 154.82 215.32 153.73 209.81 148.5 267.77 148.5 267.77 147"/><path class="cls-10" d="M277.9,164.45a6.07,6.07,0,0,0,1.29.15h59.9a5.75,5.75,0,0,0,5.75-5.75V136.64a5.75,5.75,0,0,0-5.75-5.75h-59.9a6.07,6.07,0,0,0-1.29.15l-4.47,10.61v12.19Z"/><path class="cls-6" d="M277.9,131a5.77,5.77,0,0,0-4.47,5.6v5H276a1.88,1.88,0,0,0,1.88-1.88Z"/><path class="cls-6" d="M277.9,164.45v-8.73a1.88,1.88,0,0,0-1.88-1.88h-2.59v5A5.77,5.77,0,0,0,277.9,164.45Z"/><rect class="cls-7" x="344.82" y="136.3" width="1.83" height="8.8"/><rect class="cls-7" x="344.82" y="150.34" width="1.83" height="8.8"/><rect class="cls-11" x="300.64" y="135.26" width="24.71" height="1.39"/><path class="cls-1" d="M325.36,160.23v-25H330a2.66,2.66,0,0,1,2.66,2.66v19.65a2.66,2.66,0,0,1-2.66,2.66Z"/><rect class="cls-11" x="300.65" y="158.84" width="24.69" height="1.39"/><path class="cls-1" d="M290.11,155.73v-16a4.5,4.5,0,0,1,4.51-4.5h6v25h-6A4.5,4.5,0,0,1,290.11,155.73Z"/><text class="cls-9" transform="translate(308.62 153.58)">B</text><line class="cls-12" x1="141.79" y1="212.43" x2="141.79" y2="200.24"/><line class="cls-6" x1="141.79" y1="217.44" x2="141.79" y2="212.43"/><line class="cls-6" x1="141.79" y1="200.24" x2="141.79" y2="195.23"/><path class="cls-7" d="M137.32,189.63a6,6,0,0,0-1.28-.15H76.14a5.74,5.74,0,0,0-5.75,5.75v22.21a5.74,5.74,0,0,0,5.75,5.75H136a6,6,0,0,0,1.28-.15l4.47-10.61V200.24Z"/><path class="cls-6" d="M137.32,223a5.76,5.76,0,0,0,4.47-5.6v-5h-2.58a1.89,1.89,0,0,0-1.89,1.88Z"/><path class="cls-6" d="M137.32,189.63v8.73a1.89,1.89,0,0,0,1.89,1.88h2.58v-5A5.76,5.76,0,0,0,137.32,189.63Z"/><rect class="cls-13" x="68.58" y="208.99" width="1.83" height="8.8"/><rect class="cls-13" x="68.58" y="194.94" width="1.83" height="8.8"/><rect class="cls-13" x="89.88" y="217.43" width="24.71" height="1.39"/><path class="cls-1" d="M89.87,193.85v25H85.28a2.67,2.67,0,0,1-2.67-2.66V196.51a2.67,2.67,0,0,1,2.67-2.66Z"/><rect class="cls-13" x="89.88" y="193.85" width="24.69" height="1.39"/><path class="cls-1" d="M125.11,198.35v16a4.49,4.49,0,0,1-4.5,4.5h-6v-25h6A4.49,4.49,0,0,1,125.11,198.35Z"/><text class="cls-9" transform="translate(97.02 211.72)">C</text><rect class="cls-5" x="171.53" y="65.82" width="14.07" height="14.07"/><rect class="cls-10" x="308.62" y="140.7" width="9.07" height="14.12"/><g id="Lager_4" data-name="Lager 4"><rect class="cls-7" x="92.62" y="197.74" width="17.2" height="17.2"/></g><g id="Lager_5" data-name="Lager 5"><text class="cls-14" transform="translate(171.63 80.73)">A</text><text class="cls-14" transform="translate(96.64 213.02)">C</text></g><text class="cls-14" transform="translate(307.11 154.69)">B</text></g></svg>